<svg version="1.1" xmlns="http://www.w3.org/2000/svg" fill="currentColor" x="0px" y="0px" viewBox="0 0 320.1 53.8" style="enable-background:new 0 0 320.1 53.8;" xml:space="preserve"><path d="M50.7,38.2c-5.1-4.7-12.2-5.2-19.3-1.7c-4.9,2.4-10.8,7.1-14.8,8.3c-4,1.1-5.9-0.7-5.7-3.2c0.1-2.2,2.8-3.8,5.5-4.7	c3-1,9.9-3.2,15.2-6.2c1.4-0.8,1.9-2.6,1.8-3.9c-0.1-1-0.7-2-1.8-2.7c-3.7-2.1-8.8-4.4-12.6-6.4c-3.3-1.7-4.1-6.5,3.2-5.6	c3.7,0.5,6.1,2.2,10.8,3.3c6.8,1.6,12.5,2.5,17-1.1c3.1-2.4,3.6-5.8,3.2-8.3c-0.3-2.2-1.5-3.9-3.2-5c-2.7-1.7-6.5-1.3-10,1.3	c-4.1,3-7.2,5.1-13.7,4.6C20.2,6.3,15,3.6,10.6,3.3C2.4,2.6-1.2,10.2,0.4,14.6c1.1,3,3.3,6.3,9.9,7.9c5.4,1.3,8.9,1.9,11.8,2.5	c1.7,0.3,2.7,1.1,2.8,1.9c0.1,0.8-0.3,1.6-2,2.1c-1.9,0.5-5.8,1.7-5.8,1.7s-6.7,1.8-8.3,2.3C3.2,34.6,0,40,0.6,44.5	c0.3,2.1,1.4,4.2,3.5,5.9c2.3,1.8,4.7,2.8,7.4,3c12,0.8,17.8-5.4,24.1-6.1c2.3-0.3,4.6,0.6,7,3.1c5.4,5.5,12.5,0.4,11.7-5.8	C54.1,42.5,53,40.3,50.7,38.2"></path><path d="M103.5,2.1C99.1-1,89.7,1.6,87,2.3c-6.6,1.6-12.2,5-18.6,9.1V0.8h-10v52.6h10V38.2h17c0,0,12.5-10.2,18.3-18.4	C110.3,10.6,106.8,4.4,103.5,2.1 M87.7,21.5c-7.5,5.6-19.3,10.7-19.3,10.7V20.8C73.3,16,89.6,5.3,97.5,5.4	C101.8,5.4,97.3,14.3,87.7,21.5"></path><path d="M110.2,0.8c1,2.4,3.9,7.1,3,12.8C111.4,24.3,97,39.3,96.9,53.5h11.2h5.5c-0.2-1.4-1.8-6.9-0.5-12.9c1.2-5.8,8-17.6,9.2-24.4	c1.1-6,0.4-11.7-0.6-15.5L110.2,0.8L110.2,0.8z"></path><path d="M253.6,0.8c-5.3,0-9.1,5.2-7.5,10.3c1.6,5.2,3.6,9.7,4.8,13.9c2.1,7.6,1.9,16.6-1.4,15.9c-8.9-1.9-11.4-26.2-12.6-29.8	c-1.1-3.1-2.2-6-4.8-8.4c-2.3-2.2-5.2-2.9-7.8-2.4c-3.1,0.3-9.5,2.6-9.8,15.2v0.8v37.3h4.1c5.2,0,8.8-5,7.3-9.9	c-1.6-4.9-3.1-10.2-3.7-13.1c-0.6-2.9-1-6-1.2-8.8c-0.2-2.6-0.7-9.3,2.7-10.1c1.1-0.3,2.3-0.1,3,1c2.1,3.4,1.9,14.1,2.6,18.2	c4.4,26.2,21.6,22.9,22.7,22.6c2.1-0.7,5.9-5.6,5.9-16.6c0-4.3-0.1-8.1,0-11.3c0.1-2.2,0-21.9,0-24.8L253.6,0.8z"></path><path d="M156.3,34.9c0.2-1.1,1-2.1,1.7-2.8c0.5-0.5,1.1-1.3,1.2-1.5c0.4-0.9,0.6-1.8,0.1-3v-0.1c-0.3-0.7-0.9-1.2-1.6-1.6	c-2.2-1.2-5.4-0.3-7.6,0.7c-1.1,0.5-2.1,1.3-2.8,2.2c0,0-2.4,2.1-1.8,5.6c0.6,3.6,3,4.9,4.8,5.9c2.2,1.2,3.4,4,2.4,6v0.1	c-0.1,0.1-0.1,0.1-0.2,0.2c-1.3,1.3-3.4,1.7-5.2,1.6c-2.1-0.1-4-0.5-5.6-1.3c-5.7-2.9-6.9-10.1-7-14.8c-0.1-1.7,0.2-8.4,4.6-16.6	c3-5.6,7.4-10.5,8.2-14.8h-20v52.6h27c1.8,0.1,6.7-0.1,7.4-4.4c0.4-2.5-1.5-4.4-2.8-6.3C155.6,39.2,155.9,36.8,156.3,34.9"></path><path d="M172.4,0.8c-12.3,0.8-14.5,0-14.5,0s-1.8,11.3,11.1,11.6c4.8,0.1,15.5-5.3,22.7-3.4c9,2.4,9.3,9.4,8.3,14.5	c-0.3,0.9-1,2.9-1.8,5.6c-19.7-8.8-27.6-4.7-30.9-2.3c-6.1,4.4-4.6,11.2-4.2,12.7c3.8,12,14.3,13.8,25,14l18.5-0.1	c0,0,1.6-23,1.7-24.7c0.1-2.7,0.1-5.5,0-6.6C208.1,18.3,204.9-1.2,172.4,0.8 M177,38.4c-3.4-2.4-6.4-7.4-3.3-8.5	c7.9-2.7,18.4,3.2,22.6,5.8c-0.9,3.3-1.6,6.8-1.8,9.7c-0.4,0-0.7,0-1.2-0.1C189.1,45.2,184,43.4,177,38.4"></path><path d="M303.5,2.9c-10.3-2.2-39.1-2.1-39.1-2.1v52.8l24.6,0.1c0,0,26.5-13.1,31-31.1c0.2-0.8,0.1-2,0-3.3	C319.5,14,316.7,5.7,303.5,2.9 M294.4,34.4c-9.2,4.9-19,7.6-19,7.6V9.4c0,0,26.4-3.8,32.8,1.1C315.7,16.3,306.9,27.7,294.4,34.4"></path></svg>